# xmcd
#
# Track frame offsets: 
#        150
#        13889
#        29801
#        45529
#        54582
#
# Disc length: 960 seconds
#
# Revision: 0
# Processed by: cddbd v1.5.2PL0 Copyright (c) Steve Scherf et al.
# Submitted via: ExactAudioCopyFreeDBPlugin 1.0
#
DISCID=4003be05
DTITLE=Tiny Hunters - Smiling under the Christmas Tree
DYEAR=1900
DGENRE=Country
TTITLE0=let it snow
TTITLE1=Blue Christmas
TTITLE2=White Christmas
TTITLE3=Santa Claus is coming to town
TTITLE4=Last Christmas 
EXTD=
EXTT0=
EXTT1=
EXTT2=
EXTT3=
EXTT4=
PLAYORDER=
